<svg width="60" height="48" viewBox="0 0 60 48" fill="none" xmlns="http://www.w3.org/2000/svg">
<g id="Layer_1">
<g id="Group">
<g id="Group_2">
<g id="Group_3">
<path id="Vector" d="M42.4974 46.3383L10.9882 37.3818C10.6256 37.2781 10.2701 37.1599 9.92665 37.0248C4.232 34.8183 1.04241 28.5747 2.74048 22.5578C4.53943 16.1768 11.1516 12.4702 17.5043 14.274L49.0134 23.2306C52.191 24.135 54.7033 26.2451 56.1972 28.9268C57.6911 31.6084 58.1619 34.8641 57.2636 38.0546C55.4647 44.4356 48.8549 48.1446 42.4998 46.3383H42.4974Z" fill="#0D1517"/>
<g id="Clip path group">
<mask id="mask0_87_461" style="mask-type:luminance" maskUnits="userSpaceOnUse" x="2" y="13" width="56" height="34">
<g id="clippath">
<path id="Vector_2" d="M42.4853 46.3433L10.981 37.3892C10.6183 37.2855 10.2629 37.1673 9.91943 37.0322C4.22477 34.8256 1.03759 28.5845 2.73326 22.5676C4.5322 16.189 11.1419 12.4824 17.4947 14.2863L48.999 23.2404C52.1766 24.1424 54.6889 26.2525 56.1804 28.9342C57.6719 31.6158 58.145 34.8691 57.2468 38.0596C55.4478 44.4382 48.8405 48.1472 42.4853 46.3409V46.3433Z" fill="white"/>
</g>
</mask>
<g mask="url(#mask0_87_461)">
<g id="Group_4">
<g id="Group_5">
<g id="Group_6">
<path id="Vector_3" d="M54.3303 31.8379C54.5258 33.0123 55.6325 33.8052 56.8022 33.6089C57.9718 33.4126 58.7615 32.3014 58.566 31.127L57.9712 27.5544C57.7757 26.38 56.669 25.5871 55.4993 25.7834C54.3297 25.9797 53.54 27.0909 53.7355 28.2653L54.3303 31.8379Z" fill="white"/>
<path id="Vector_4" d="M56.447 34.1214C55.186 34.1214 54.0716 33.205 53.8554 31.9172L53.2598 28.3456C53.022 26.9108 53.9899 25.5482 55.419 25.3071C56.8481 25.0683 58.2051 26.0402 58.4453 27.4751L59.0409 31.0466C59.1562 31.7411 58.9953 32.4405 58.587 33.0145C58.1787 33.5884 57.5734 33.967 56.8817 34.0852C56.7352 34.1093 56.5911 34.1214 56.447 34.1214ZM55.5775 26.2596C54.6696 26.4116 54.0572 27.2773 54.2085 28.1865L54.8041 31.758C54.9555 32.6672 55.8153 33.287 56.7232 33.1326C57.1627 33.0579 57.547 32.8167 57.8064 32.455C58.0658 32.0908 58.1667 31.6471 58.0946 31.2058L57.499 27.6342C57.3476 26.7251 56.4878 26.1077 55.5799 26.2596H55.5775Z" fill="#0D1517"/>
</g>
<g id="Group_7">
<path id="Vector_5" d="M53.6822 39.2818C54.2265 40.3397 55.5218 40.7542 56.5754 40.2078C57.629 39.6613 58.0419 38.3607 57.4976 37.3028L55.8419 34.0846C55.2977 33.0268 54.0023 32.6122 52.9487 33.1587C51.8951 33.7051 51.4823 35.0057 52.0265 36.0636L53.6822 39.2818Z" fill="white"/>
<path id="Vector_6" d="M55.5919 40.9346C55.3229 40.9346 55.0539 40.8936 54.7921 40.8092C54.122 40.5945 53.5768 40.1315 53.255 39.5069L51.6002 36.2899C51.2783 35.6629 51.2183 34.949 51.4296 34.2786C51.6434 33.6058 52.1045 33.0584 52.7266 32.7352C53.3511 32.4121 54.062 32.3518 54.7297 32.564C55.3998 32.7786 55.945 33.2416 56.2668 33.8662L57.9217 37.0833C58.2435 37.7103 58.3036 38.4241 58.0922 39.0945C57.8784 39.7674 57.4173 40.3148 56.7952 40.6379C56.4157 40.8333 56.005 40.9346 55.5919 40.9346ZM53.9323 33.4032C53.6705 33.4032 53.4087 33.4659 53.1685 33.5913C52.7722 33.7963 52.4816 34.1436 52.3447 34.5704C52.2102 34.9973 52.2486 35.4506 52.4528 35.8461L54.1076 39.0632C54.3118 39.4611 54.6576 39.7529 55.0828 39.8903C55.5079 40.0254 55.9594 39.9868 56.3533 39.7818C56.7496 39.5768 57.0402 39.2296 57.1771 38.8027C57.3116 38.3759 57.2732 37.9225 57.069 37.527L55.4142 34.31C55.21 33.9121 54.8642 33.6178 54.4391 33.4828C54.2709 33.4297 54.1004 33.4032 53.9299 33.4032H53.9323Z" fill="#0D1517"/>
</g>
<g id="Group_8">
<path id="Vector_7" d="M51.9584 44.4681C53.1229 44.6928 54.2484 43.9271 54.4723 42.7578C54.6961 41.5885 53.9335 40.4584 52.769 40.2337L49.2263 39.55C48.0618 39.3252 46.9362 40.0909 46.7124 41.2602C46.4886 42.4295 47.2512 43.5596 48.4157 43.7844L51.9584 44.4681Z" fill="white"/>
<path id="Vector_8" d="M52.3591 44.9858C52.1958 44.9858 52.0276 44.9713 51.8619 44.9376L48.3193 44.2527C47.63 44.1201 47.0343 43.7246 46.6404 43.141C46.2465 42.5573 46.1024 41.8556 46.2345 41.1635C46.5083 39.7358 47.887 38.7953 49.3112 39.0702L52.8539 39.7551C53.5432 39.8877 54.1388 40.2832 54.5327 40.8668C54.9266 41.4504 55.0707 42.1522 54.9386 42.8443C54.696 44.1056 53.5936 44.9858 52.3591 44.9858ZM48.8164 39.989C48.0335 39.989 47.3321 40.5461 47.1808 41.3467C47.0968 41.7856 47.188 42.2318 47.4378 42.6008C47.6876 42.9697 48.0671 43.2205 48.5042 43.3049L52.0469 43.9898C52.9475 44.1635 53.8242 43.5678 53.9995 42.661C54.1724 41.7543 53.5792 40.8741 52.6761 40.7004L49.1335 40.0155C49.0278 39.9963 48.9221 39.9842 48.8188 39.9842L48.8164 39.989Z" fill="#0D1517"/>
</g>
<g id="Group_9">
<path id="Vector_9" d="M52.6441 26.2889C53.8087 26.5136 54.9342 25.7479 55.158 24.5786C55.3818 23.4093 54.6192 22.2792 53.4547 22.0545L49.912 21.3708C48.7475 21.146 47.622 21.9117 47.3981 23.081C47.1743 24.2503 47.9369 25.3804 49.1015 25.6052L52.6441 26.2889Z" fill="white"/>
<path id="Vector_10" d="M53.0484 26.8071C52.8851 26.8071 52.717 26.7927 52.5512 26.7589L49.0086 26.0764C47.5867 25.8015 46.65 24.4148 46.9238 22.9872C47.1976 21.5595 48.5787 20.619 50.0005 20.8939L53.5432 21.5764C54.965 21.8513 55.9017 23.238 55.6279 24.6656C55.3854 25.9269 54.2829 26.8071 53.0484 26.8071ZM47.8677 23.1681C47.6948 24.0748 48.2881 24.955 49.1911 25.1287L52.7338 25.8111C53.6344 25.9848 54.5111 25.3891 54.6864 24.4824C54.7705 24.0435 54.6792 23.5973 54.4294 23.2283C54.1797 22.8594 53.8002 22.6086 53.363 22.5242L49.8204 21.8417C48.9197 21.6681 48.0407 22.2637 47.8677 23.1705V23.1681Z" fill="#0D1517"/>
</g>
<g id="Group_10">
<path id="Vector_11" d="M48.0103 29.8403C46.887 30.2219 46.2844 31.4456 46.6644 32.5735C47.0444 33.7014 48.2631 34.3064 49.3865 33.9249L52.8037 32.7641C53.927 32.3826 54.5296 31.1589 54.1496 30.031C53.7696 28.9031 52.5509 28.2981 51.4276 28.6796L48.0103 29.8403Z" fill="white"/>
<path id="Vector_12" d="M48.7012 34.5217C47.6059 34.5217 46.5804 33.8271 46.2105 32.7274C45.9847 32.0594 46.0328 31.3432 46.345 30.7114C46.6548 30.0795 47.1928 29.6069 47.8581 29.3826L51.2735 28.2226C52.6449 27.7572 54.1412 28.4975 54.6048 29.877C55.0683 31.254 54.331 32.7564 52.9571 33.2218L49.5418 34.3818C49.2632 34.4758 48.9798 34.5217 48.7012 34.5217ZM52.1141 29.0498C51.9364 29.0498 51.7586 29.0787 51.5809 29.139L48.1655 30.299C47.7428 30.4413 47.4018 30.7427 47.2048 31.143C47.0079 31.5434 46.9767 31.9967 47.1208 32.4212C47.4162 33.2966 48.3625 33.7644 49.2344 33.4702L52.6497 32.3102C53.5192 32.0136 53.9899 31.0635 53.6945 30.1881C53.4591 29.4911 52.8082 29.0498 52.1141 29.0498Z" fill="#0D1517"/>
</g>
<g id="Group_11">
<path id="Vector_13" d="M45.9786 34.5545C44.7928 34.5504 43.8281 35.5123 43.824 36.703C43.8198 37.8936 44.7778 38.8623 45.9637 38.8664L49.5711 38.8791C50.757 38.8832 51.7217 37.9213 51.7258 36.7306C51.73 35.54 50.772 34.5713 49.5861 34.5672L45.9786 34.5545Z" fill="white"/>
<path id="Vector_14" d="M49.5754 39.3594H49.5658L45.9583 39.3473C44.51 39.3425 43.3355 38.1536 43.3403 36.6994C43.3452 35.2476 44.5244 34.0684 45.9679 34.0684H45.9775L49.585 34.0804C51.0333 34.0852 52.2078 35.2741 52.203 36.7283C52.203 37.4325 51.9244 38.0957 51.4272 38.5925C50.9324 39.0868 50.2743 39.3594 49.5754 39.3594ZM45.9679 35.033C45.0504 35.033 44.3035 35.7806 44.3011 36.7018C44.2987 37.6254 45.0432 38.3778 45.9631 38.3827L49.5706 38.3947H49.5754C50.0173 38.3947 50.4352 38.2211 50.7499 37.9076C51.0669 37.5917 51.2398 37.1721 51.2423 36.7259C51.2447 35.8023 50.5001 35.0499 49.5802 35.0475L45.9727 35.0354H45.9679V35.033Z" fill="#0D1517"/>
</g>
<g id="Group_12">
<path id="Vector_15" d="M41.5004 42.9281C40.3146 42.9239 39.3499 43.8858 39.3458 45.0765C39.3416 46.2672 40.2996 47.2358 41.4854 47.2399L45.0929 47.2526C46.2788 47.2567 47.2435 46.2949 47.2476 45.1042C47.2517 43.9135 46.2938 42.9449 45.1079 42.9407L41.5004 42.9281Z" fill="white"/>
<path id="Vector_16" d="M45.0961 47.73H45.0865L41.4814 47.7179C40.0331 47.7131 38.8562 46.5242 38.861 45.07C38.8658 43.6182 40.0451 42.439 41.4886 42.439H41.4982L45.1057 42.451C45.807 42.451 46.4675 42.7308 46.9623 43.23C47.4571 43.7292 47.7285 44.3948 47.7261 45.0989C47.7213 46.5507 46.542 47.7276 45.0985 47.7276L45.0961 47.73ZM41.4886 43.406C40.5711 43.406 39.8242 44.1536 39.8218 45.0748C39.8194 45.9985 40.5639 46.7509 41.4838 46.7557L45.0889 46.7677H45.0937C46.0112 46.7677 46.7581 46.0202 46.7605 45.0989C46.7605 44.6528 46.59 44.2308 46.2754 43.9124C45.9607 43.5941 45.5428 43.4205 45.0985 43.4181L41.491 43.406H41.4862H41.4886Z" fill="#0D1517"/>
</g>
<g id="Group_13">
<path id="Vector_17" d="M48.8716 21.5576C49.995 21.1761 50.5976 19.9524 50.2175 18.8245C49.8375 17.6966 48.6188 17.0915 47.4955 17.4731L44.0782 18.6338C42.9549 19.0154 42.3523 20.239 42.7323 21.3669C43.1124 22.4949 44.331 23.0999 45.4544 22.7183L48.8716 21.5576Z" fill="white"/>
<path id="Vector_18" d="M44.7694 23.3154C43.6742 23.3154 42.6487 22.6209 42.2788 21.5212C42.053 20.8532 42.1011 20.1369 42.4133 19.5051C42.7231 18.8733 43.2611 18.4006 43.9264 18.1763L47.3418 17.0164C48.0071 16.7897 48.7204 16.8379 49.3497 17.1514C49.9789 17.4625 50.4497 18.0027 50.6731 18.6707C51.1366 20.0477 50.3993 21.5501 49.0254 22.0156L45.6101 23.1755C45.3315 23.2696 45.0481 23.3154 44.7694 23.3154ZM48.1848 17.8411C48.0047 17.8411 47.8245 17.8701 47.6492 17.9303L44.2338 19.0903C43.8111 19.2326 43.4701 19.534 43.2731 19.9344C43.0762 20.3347 43.045 20.7881 43.1891 21.2125C43.4845 22.0879 44.4332 22.5557 45.3026 22.2615L48.718 21.1016C49.5898 20.8049 50.0582 19.8548 49.7628 18.9794C49.6211 18.5549 49.3209 18.2125 48.9222 18.0148C48.6892 17.899 48.437 17.8411 48.1848 17.8411Z" fill="#0D1517"/>
</g>
<g id="Group_14">
<path id="Vector_19" d="M43.3322 28.7987C43.3281 29.9894 44.286 30.958 45.4719 30.9622C46.6577 30.9664 47.6224 30.0045 47.6266 28.8138L47.6392 25.1916C47.6433 24.0009 46.6853 23.0323 45.4995 23.0282C44.3136 23.024 43.3489 23.9859 43.3448 25.1766L43.3322 28.7987Z" fill="white"/>
<path id="Vector_20" d="M45.478 31.4495H45.4684C44.7671 31.4495 44.1066 31.1698 43.6118 30.6706C43.117 30.1714 42.8456 29.5058 42.848 28.8016L42.86 25.1794C42.8649 23.7276 44.0441 22.5508 45.4876 22.5508H45.4972C46.9455 22.5556 48.1224 23.7445 48.1176 25.1987L48.1056 28.8185C48.1008 30.2702 46.9215 31.4495 45.478 31.4495ZM45.49 23.5154C44.5725 23.5154 43.8256 24.263 43.8232 25.1842L43.8112 28.8064C43.8088 29.73 44.5533 30.4825 45.4732 30.4873H45.478C46.3955 30.4873 47.1424 29.7397 47.1448 28.8185L47.1569 25.1987C47.1593 24.2751 46.4147 23.5226 45.4948 23.5178H45.49V23.5154Z" fill="#0D1517"/>
</g>
<g id="Group_15">
<path id="Vector_21" d="M41.2272 14.8811C40.7356 13.7975 39.4622 13.3192 38.383 13.8128C37.3039 14.3064 36.8275 15.585 37.3191 16.6685L38.8145 19.9648C39.3061 21.0484 40.5795 21.5267 41.6587 21.0331C42.7378 20.5395 43.2142 19.261 42.7226 18.1774L41.2272 14.8811Z" fill="white"/>
<path id="Vector_22" d="M40.7729 21.7117C39.7737 21.7117 38.8178 21.1378 38.3783 20.1659L36.8844 16.8717C36.5938 16.2302 36.5697 15.514 36.8147 14.8532C37.0597 14.1925 37.5473 13.6691 38.1861 13.3773C38.825 13.0855 39.5383 13.059 40.1964 13.3074C40.8545 13.5534 41.3757 14.0429 41.6663 14.6844L43.1603 17.981C43.7607 19.305 43.1771 20.8725 41.8585 21.4754C41.5054 21.637 41.1379 21.7117 40.7729 21.7117ZM39.2717 14.1032C39.0412 14.1032 38.8058 14.1515 38.5824 14.2527C38.1765 14.4384 37.8691 14.7712 37.713 15.1884C37.5569 15.608 37.5737 16.0614 37.7562 16.469L39.2501 19.7632C39.6296 20.6024 40.6216 20.9762 41.4598 20.5928C42.2956 20.2093 42.6679 19.2158 42.286 18.3741L40.7921 15.0775C40.5135 14.4625 39.9058 14.0984 39.2717 14.0984V14.1032Z" fill="#0D1517"/>
</g>
<g id="Group_16">
<path id="Vector_23" d="M44.1679 11.5861C43.1777 10.931 41.846 11.2059 41.1936 12.2002C40.5411 13.1945 40.815 14.5316 41.8052 15.1867L44.8176 17.1796C45.8079 17.8347 47.1395 17.5597 47.792 16.5654C48.4444 15.5712 48.1706 14.2341 47.1803 13.579L44.1679 11.5861Z" fill="white"/>
<path id="Vector_24" d="M45.9968 18.022C45.4876 18.022 44.9904 17.8725 44.5557 17.5855L41.5438 15.5936C40.9578 15.2053 40.5567 14.612 40.415 13.9223C40.2733 13.2326 40.4078 12.5284 40.7945 11.94C41.1812 11.3516 41.772 10.9489 42.4589 10.8066C43.1458 10.6667 43.8471 10.7993 44.4332 11.1876L47.445 13.1796C48.0311 13.5678 48.4322 14.1611 48.5739 14.8508C48.7156 15.5405 48.5811 16.2447 48.1944 16.8331C47.8077 17.4215 47.2169 17.8243 46.53 17.9665C46.3522 18.0027 46.1721 18.022 45.9944 18.022H45.9968ZM42.9921 11.7157C42.8792 11.7157 42.7663 11.7278 42.6535 11.7495C42.2163 11.8387 41.8416 12.0944 41.5967 12.4682C41.3517 12.8419 41.2652 13.2881 41.3565 13.727C41.4454 14.1659 41.6999 14.5421 42.0722 14.7881L45.0841 16.78C45.4564 17.026 45.9007 17.1128 46.3378 17.0212C46.7749 16.9296 47.1496 16.6763 47.3946 16.3026C47.9014 15.5309 47.6876 14.4915 46.919 13.9826L43.9072 11.9907C43.631 11.8074 43.3164 11.7133 42.9921 11.7133V11.7157Z" fill="#0D1517"/>
</g>
<g id="Group_17">
<path id="Vector_25" d="M37.9063 31.0409C37.5263 29.913 36.3076 29.3079 35.1843 29.6895C34.061 30.0711 33.4584 31.2947 33.8384 32.4226L34.9944 35.8538C35.3744 36.9817 36.5931 37.5867 37.7164 37.2052C38.8398 36.8236 39.4424 35.6 39.0624 34.4721L37.9063 31.0409Z" fill="white"/>
<path id="Vector_26" d="M37.0308 37.8012C35.9356 37.8012 34.91 37.1067 34.5402 36.007L33.3849 32.5777C32.9214 31.1983 33.6587 29.6983 35.0325 29.2329C36.404 28.7674 37.9003 29.5078 38.3638 30.8872L39.5191 34.3165C39.9826 35.6935 39.2453 37.1959 37.8714 37.6613C37.5928 37.7554 37.3094 37.8012 37.0308 37.8012ZM35.8708 30.0576C35.693 30.0576 35.5153 30.0866 35.3376 30.1469C34.9148 30.2891 34.5738 30.5906 34.3768 30.9909C34.1799 31.3912 34.1487 31.8446 34.2928 32.269L35.448 35.6983C35.7435 36.5713 36.6898 37.044 37.5616 36.7473C38.4335 36.4507 38.9018 35.5006 38.6064 34.6252L37.4511 31.1959C37.2158 30.4989 36.5649 30.0576 35.8708 30.0576Z" fill="#0D1517"/>
</g>
<g id="Group_18">
<path id="Vector_27" d="M29.7738 37.5005C28.6042 37.6969 27.8145 38.808 28.01 39.9824C28.2055 41.1568 29.3122 41.9497 30.4818 41.7534L34.04 41.1562C35.2096 40.9599 35.9993 39.8487 35.8038 38.6743C35.6082 37.4999 34.5015 36.707 33.3319 36.9033L29.7738 37.5005Z" fill="white"/>
<path id="Vector_28" d="M30.1233 42.2656C29.5805 42.2656 29.0521 42.0968 28.603 41.7736C28.0313 41.3636 27.6543 40.7559 27.5366 40.0614C27.4189 39.3669 27.5822 38.6675 27.9905 38.0936C28.3988 37.5196 29.0041 37.141 29.6958 37.0228L33.2528 36.4272C33.947 36.3114 34.6411 36.473 35.2127 36.8805C35.7843 37.2881 36.1614 37.8982 36.2791 38.5927C36.3968 39.2873 36.2335 39.9866 35.8252 40.5606C35.4169 41.1345 34.8116 41.5156 34.1199 41.6313L30.5628 42.2294C30.4163 42.2535 30.2698 42.2656 30.1233 42.2656ZM33.6852 37.3556C33.5939 37.3556 33.5026 37.3628 33.409 37.3797L29.8519 37.9754C29.4124 38.0501 29.0281 38.2913 28.7687 38.653C28.5093 39.0172 28.4084 39.4609 28.4805 39.9022C28.5549 40.3436 28.7951 40.7294 29.1554 40.9899C29.5181 41.2503 29.96 41.3516 30.3995 41.2792L33.9566 40.6812C34.3961 40.6064 34.7804 40.3677 35.0398 40.0035C35.2992 39.6394 35.4 39.1956 35.328 38.7543C35.1911 37.9368 34.485 37.3556 33.6852 37.3556Z" fill="#0D1517"/>
</g>
<g id="Group_19">
<path id="Vector_29" d="M42.4623 24.6282C43.1147 23.634 42.8409 22.2969 41.8506 21.6417C40.8604 20.9866 39.5287 21.2616 38.8762 22.2559L36.8914 25.2805C36.239 26.2748 36.5128 27.6119 37.5031 28.267C38.4933 28.9221 39.825 28.6472 40.4774 27.6529L42.4623 24.6282Z" fill="white"/>
<path id="Vector_30" d="M38.6785 29.106C38.1693 29.106 37.6722 28.9565 37.2374 28.6695C36.6514 28.2812 36.2503 27.688 36.1086 26.9983C35.9669 26.3085 36.1014 25.6044 36.4881 25.0159L38.472 21.9918C38.8586 21.4034 39.4495 21.0007 40.1364 20.8584C40.8233 20.7161 41.5246 20.8512 42.1107 21.2394C42.6967 21.6277 43.0978 22.2209 43.2395 22.9106C43.3812 23.6003 43.2467 24.3045 42.86 24.893L40.8762 27.9171C40.4895 28.5055 39.8986 28.9082 39.2117 29.0505C39.034 29.0867 38.8538 29.106 38.6761 29.106H38.6785ZM40.6696 21.77C40.5567 21.77 40.4438 21.782 40.3309 21.8037C39.8938 21.893 39.5191 22.1486 39.2742 22.5224L37.2903 25.5465C37.0453 25.9203 36.9588 26.3664 37.0501 26.8053C37.139 27.2442 37.3936 27.6204 37.7658 27.8664C38.1381 28.1124 38.5824 28.1992 39.0196 28.1076C39.4567 28.0184 39.8314 27.7627 40.0764 27.3889L42.0602 24.3648C42.3052 23.991 42.3917 23.5449 42.3004 23.106C42.2115 22.6671 41.957 22.2909 41.5847 22.0449C41.3085 21.8616 40.9938 21.7675 40.6696 21.7675V21.77Z" fill="#0D1517"/>
</g>
<g id="Group_20">
<path id="Vector_31" d="M42.7172 28.9483C41.9853 28.0114 40.6356 27.8476 39.7025 28.5825C38.7695 29.3174 38.6064 30.6726 39.3383 31.6094L41.5647 34.4595C42.2966 35.3964 43.6463 35.5601 44.5794 34.8252C45.5125 34.0904 45.6756 32.7352 44.9437 31.7983L42.7172 28.9483Z" fill="white"/>
<path id="Vector_32" d="M43.2563 35.7639C43.1506 35.7639 43.0425 35.7567 42.9368 35.7446C42.2403 35.6602 41.6182 35.3081 41.1835 34.7535L38.9571 31.9054C38.5247 31.3507 38.3326 30.661 38.4167 29.9593C38.5007 29.2599 38.8514 28.6353 39.4038 28.1988C40.5446 27.3017 42.1995 27.5019 43.0929 28.645L45.3194 31.493C45.7517 32.0477 45.9463 32.7374 45.8598 33.4392C45.7734 34.1409 45.4251 34.7631 44.8727 35.1996C44.4043 35.5686 43.8399 35.7639 43.2563 35.7639ZM41.025 28.6015C40.6647 28.6015 40.3021 28.7173 39.997 28.9585C39.6464 29.2334 39.4254 29.6313 39.3702 30.075C39.3173 30.5188 39.4398 30.9577 39.7136 31.3097L41.9401 34.1578C42.2139 34.5099 42.6102 34.7318 43.0521 34.7872C43.494 34.8427 43.9312 34.7173 44.2818 34.4424C44.6325 34.1675 44.8535 33.7696 44.9087 33.3258C44.9615 32.8821 44.8391 32.4432 44.5652 32.0911L42.3388 29.243C42.0097 28.8234 41.5198 28.604 41.025 28.604V28.6015Z" fill="#0D1517"/>
</g>
<g id="Group_21">
<path id="Vector_33" d="M40.0508 42.3755C40.3413 41.2211 39.6447 40.0488 38.495 39.7571C37.3453 39.4655 36.1777 40.1648 35.8872 41.3193L35.0035 44.8311C34.713 45.9855 35.4095 47.1578 36.5593 47.4495C37.709 47.7412 38.8765 47.0418 39.167 45.8874L40.0508 42.3755Z" fill="white"/>
<path id="Vector_34" d="M37.0909 48.0003C36.8747 48.0003 36.6562 47.9737 36.4424 47.9183C35.0374 47.5614 34.1823 46.1241 34.5378 44.7133L35.4216 41.202C35.5946 40.5196 36.0197 39.9432 36.6225 39.5815C37.2254 39.2197 37.9315 39.116 38.6136 39.2897C39.2933 39.4633 39.8674 39.8901 40.2276 40.4954C40.5879 41.1007 40.6912 41.8098 40.5183 42.4946L39.6344 46.0059C39.4615 46.6884 39.0364 47.2647 38.4335 47.6265C38.0204 47.8749 37.5592 48.0003 37.0909 48.0003ZM37.9676 40.1747C37.6697 40.1747 37.3791 40.2543 37.1173 40.411C36.7354 40.6401 36.464 41.0043 36.3559 41.4384L35.4721 44.9496C35.2463 45.8443 35.7891 46.7559 36.6802 46.9826C37.5737 47.2093 38.4791 46.6642 38.7049 45.7696L39.5888 42.2583C39.6992 41.8242 39.632 41.3733 39.4038 40.9898C39.1757 40.6064 38.813 40.3339 38.3807 40.2253C38.2438 40.1916 38.1069 40.1747 37.97 40.1747H37.9676Z" fill="#0D1517"/>
</g>
<g id="Group_22">
<path id="Vector_35" d="M43.6949 36.6278C43.3148 35.4999 42.0961 34.8949 40.9728 35.2764C39.8495 35.658 39.2469 36.8816 39.6269 38.0095L40.7829 41.4407C41.1629 42.5686 42.3816 43.1737 43.505 42.7921C44.6283 42.4105 45.2309 41.1869 44.8509 40.059L43.6949 36.6278Z" fill="white"/>
<path id="Vector_36" d="M42.8144 43.3895C42.4157 43.3895 42.0194 43.2979 41.6519 43.1146C41.0226 42.8035 40.5519 42.2633 40.3285 41.5953L39.1733 38.1661C38.9475 37.4981 38.9955 36.7818 39.3078 36.15C39.6176 35.5182 40.1556 35.0455 40.8209 34.8188C42.1947 34.3534 43.6886 35.0937 44.1522 36.4732L45.3074 39.9024C45.771 41.2818 45.0336 42.7818 43.6598 43.2473C43.3836 43.3413 43.0978 43.3871 42.8144 43.3871V43.3895ZM41.6591 35.646C41.4814 35.646 41.3036 35.6749 41.1259 35.7352C40.7032 35.8775 40.3621 36.1789 40.1652 36.5793C39.9683 36.9796 39.937 37.433 40.0811 37.8574L41.2364 41.2867C41.3781 41.7111 41.6783 42.0535 42.077 42.2513C42.4757 42.449 42.9273 42.4804 43.35 42.3357C44.2218 42.0391 44.6902 41.0889 44.3948 40.2135L43.2395 36.7842C43.0041 36.0873 42.3532 35.646 41.6591 35.646Z" fill="#0D1517"/>
</g>
</g>
<g id="Group_23">
<g id="Group_24">
<path id="Vector_37" d="M21.824 39.3328C20.7073 39.7334 20.1254 40.9671 20.5244 42.0884C20.9233 43.2097 22.1521 43.7939 23.2688 43.3933L26.666 42.1747C27.7827 41.7741 28.3646 40.5403 27.9656 39.4191C27.5667 38.2978 26.3379 37.7135 25.2212 38.1141L21.824 39.3328Z" fill="white"/>
<path id="Vector_38" d="M21.9619 43.9343C21.1189 43.739 20.3864 43.1289 20.0741 42.2511C19.5866 40.8813 20.2999 39.3668 21.6641 38.8773L25.0603 37.6594C26.4245 37.1699 27.9304 37.8861 28.4204 39.2559C28.9079 40.6257 28.1946 42.1401 26.8304 42.6297L23.4342 43.8475C22.9443 44.0236 22.4351 44.0429 21.9619 43.9343ZM26.3164 38.5131C26.009 38.4408 25.6871 38.4601 25.3845 38.5686L21.9884 39.7864C21.5681 39.9359 21.2342 40.2422 21.0421 40.6474C20.8523 41.0525 20.8283 41.5059 20.9796 41.9279C21.2894 42.7985 22.2454 43.2519 23.11 42.9408L26.5061 41.7229C27.3708 41.4118 27.8247 40.452 27.5149 39.5839C27.366 39.1618 27.061 38.8266 26.6574 38.6337C26.547 38.5806 26.4317 38.542 26.3164 38.5131Z" fill="#0D1517"/>
</g>
<g id="Group_25">
<path id="Vector_39" d="M9.30319 42.2107C9.55562 43.3741 10.6996 44.1118 11.8582 43.8583C13.0169 43.6049 13.7516 42.4563 13.4992 41.2929L12.7313 37.7537C12.4789 36.5903 11.3349 35.8526 10.1762 36.1061C9.01755 36.3595 8.28288 37.5081 8.5353 38.6715L9.30319 42.2107Z" fill="white"/>
<path id="Vector_40" d="M11.3941 44.3901C10.8969 44.3901 10.4094 44.2478 9.97945 43.9705C9.38861 43.5894 8.9803 43.001 8.83139 42.3113L8.06281 38.7735C7.9139 38.0838 8.0412 37.3796 8.41828 36.7864C8.79536 36.1931 9.3838 35.7832 10.0707 35.6336C10.7552 35.4841 11.459 35.6095 12.0498 35.9906C12.6406 36.3716 13.0489 36.96 13.1979 37.6497L13.9664 41.1875C14.1153 41.8772 13.9904 42.5814 13.611 43.1746C13.2315 43.7679 12.6454 44.1779 11.9585 44.3274C11.7712 44.3684 11.5814 44.3877 11.3941 44.3877V44.3901ZM10.6327 36.538C10.5126 36.538 10.3926 36.55 10.2749 36.5766C9.84014 36.6706 9.46786 36.9311 9.22768 37.3073C8.98751 37.6835 8.90584 38.132 9.00192 38.5685L9.77049 42.1063C9.96744 43.0082 10.8585 43.5822 11.7544 43.3844C12.1891 43.2904 12.5614 43.0299 12.8016 42.6537C13.0417 42.2775 13.1234 41.829 13.0273 41.3925L12.2587 37.8547C12.1651 37.4182 11.9057 37.0444 11.531 36.8033C11.2596 36.6272 10.9498 36.538 10.6327 36.538Z" fill="#0D1517"/>
</g>
<g id="Group_26">
<path id="Vector_41" d="M29.6393 35.5763C30.8251 35.5805 31.7898 34.6186 31.794 33.4279C31.7981 32.2372 30.8401 31.2686 29.6543 31.2644L26.0468 31.2518C24.8609 31.2476 23.8962 32.2095 23.8921 33.4002C23.888 34.5909 24.8459 35.5595 26.0318 35.5637L29.6393 35.5763Z" fill="white"/>
<path id="Vector_42" d="M29.6501 36.0605H29.6405L26.033 36.0485C24.5847 36.0436 23.4103 34.8547 23.4151 33.4006C23.4151 32.6964 23.6937 32.0332 24.1908 31.5364C24.6856 31.042 25.3437 30.7695 26.0426 30.7695H26.0522L29.6573 30.7816C31.1056 30.7864 32.2825 31.9753 32.2777 33.4295C32.2753 34.1337 31.9991 34.7969 31.5019 35.2936C31.0071 35.788 30.349 36.0605 29.6501 36.0605ZM26.0426 31.7366C25.6007 31.7366 25.1828 31.9078 24.8681 32.2237C24.5511 32.5396 24.3782 32.9592 24.3758 33.4054C24.3734 34.329 25.1179 35.0814 26.0378 35.0863L29.6453 35.0983H29.6525C30.0944 35.0983 30.5124 34.9271 30.827 34.6112C31.144 34.2953 31.317 33.8756 31.3194 33.4295C31.3218 32.5059 30.5772 31.7535 29.6573 31.7486L26.0522 31.7366H26.045H26.0426Z" fill="#0D1517"/>
</g>
<g id="Group_27">
<path id="Vector_43" d="M20.8119 32.5761C20.0204 31.6895 18.6629 31.6149 17.7798 32.4097C16.8967 33.2044 16.8225 34.5674 17.614 35.4541L20.0218 38.1514C20.8133 39.0381 22.1708 39.1126 23.0539 38.3179C23.9369 37.5231 24.0112 36.1601 23.2197 35.2734L20.8119 32.5761Z" fill="white"/>
<path id="Vector_44" d="M21.6233 39.3522C21.5489 39.3522 21.4744 39.3498 21.4 39.3426C20.7323 39.2919 20.1102 38.976 19.6635 38.4744L17.3073 35.8361C16.3946 34.8136 16.349 33.2389 17.2785 32.2308C18.3449 31.0733 20.1486 31.1095 21.1694 32.2574L23.5111 34.8812C24.4863 35.9736 24.4503 37.7316 23.3502 38.6987C22.8675 39.1231 22.2598 39.3546 21.6209 39.3546L21.6233 39.3522ZM19.2119 32.3442C18.8108 32.3442 18.4073 32.4889 18.0879 32.7807C17.4034 33.4077 17.3962 34.4929 18.0158 35.185L20.3768 37.8305C20.6746 38.1633 21.0829 38.3611 21.5273 38.3852C21.9716 38.4069 22.3991 38.2598 22.7306 37.9607C23.4151 37.3458 23.4727 36.2847 22.8603 35.5974L20.4537 32.9013C20.1246 32.5323 19.6683 32.3442 19.2119 32.3442Z" fill="#0D1517"/>
</g>
<g id="Group_28">
<path id="Vector_45" d="M16.0208 32.7941C15.5578 31.6979 14.2974 31.1861 13.2057 31.651C12.1139 32.1158 11.6042 33.3813 12.0672 34.4775L13.4756 37.8123C13.9385 38.9085 15.1989 39.4203 16.2907 38.9554C17.3824 38.4906 17.8922 37.2251 17.4292 36.1289L16.0208 32.7941Z" fill="white"/>
<path id="Vector_46" d="M15.4532 39.6082C15.1193 39.6082 14.7855 39.5431 14.4685 39.4153C13.8176 39.15 13.3084 38.6484 13.0346 37.9997L11.6271 34.6669C11.3533 34.0182 11.3461 33.2995 11.6103 32.6484C11.8745 31.9948 12.3741 31.4836 13.0202 31.2087C13.6663 30.9338 14.382 30.9265 15.0305 31.1918C15.6814 31.4571 16.1905 31.9587 16.4643 32.6074L17.8718 35.9402C18.1456 36.5889 18.1528 37.3075 17.8886 37.9611C17.6244 38.6146 17.1248 39.1259 16.4788 39.4008C16.1497 39.5407 15.8014 39.613 15.4532 39.613V39.6082ZM14.0457 31.9587C13.8248 31.9587 13.6038 32.0045 13.3948 32.0913C12.9841 32.2649 12.6671 32.5905 12.499 33.0053C12.3333 33.4201 12.3357 33.8759 12.5086 34.2858L13.916 37.6186C14.089 38.031 14.4132 38.3493 14.8263 38.5182C15.2394 38.687 15.6934 38.6821 16.1017 38.5085C16.9471 38.1468 17.3434 37.1629 16.9855 36.314L15.5781 32.9812C15.4051 32.5688 15.0809 32.2505 14.6678 32.0817C14.466 31.9997 14.2547 31.9587 14.0433 31.9587H14.0457Z" fill="#0D1517"/>
</g>
<g id="Group_29">
<path id="Vector_47" d="M6.5906 31.9533C6.12763 30.8571 4.86727 30.3453 3.77551 30.8102C2.68375 31.275 2.17402 32.5405 2.637 33.6367L4.0454 36.9714C4.50837 38.0677 5.76873 38.5795 6.86049 38.1146C7.95225 37.6497 8.46198 36.3842 7.99901 35.288L6.5906 31.9533Z" fill="white"/>
<path id="Vector_48" d="M6.02848 38.7664C5.00532 38.7664 4.03019 38.1611 3.60507 37.1578L2.19762 33.825C1.92382 33.1763 1.91661 32.4577 2.18081 31.8041C2.44501 31.1506 2.94458 30.6394 3.59066 30.3644C4.23675 30.0895 4.95008 30.0823 5.60097 30.3476C6.25185 30.6128 6.76103 31.1144 7.03484 31.7631L8.44229 35.0959C9.00911 36.4344 8.38224 37.9874 7.04925 38.5566C6.7154 38.6988 6.36954 38.7664 6.02608 38.7664H6.02848ZM4.61623 31.1193C4.39526 31.1193 4.1743 31.1651 3.96534 31.2519C3.55464 31.4255 3.2376 31.7511 3.06947 32.1659C2.90135 32.5807 2.90615 33.0365 3.07908 33.4464L4.48653 36.7792C4.8468 37.6281 5.82673 38.026 6.67217 37.6667C7.08287 37.4931 7.39991 37.1675 7.56803 36.7527C7.73376 36.3379 7.73136 35.8821 7.55843 35.4722L6.15098 32.1394C5.97805 31.727 5.6538 31.4086 5.2407 31.2398C5.03895 31.1578 4.82759 31.1168 4.61623 31.1168V31.1193Z" fill="#0D1517"/>
</g>
<g id="Group_30">
<path id="Vector_49" d="M29.7246 31.0972C30.5161 31.9839 31.8736 32.0584 32.7567 31.2637C33.6398 30.469 33.714 29.1059 32.9225 28.2193L30.5147 25.522C29.7232 24.6353 28.3657 24.5608 27.4826 25.3555C26.5996 26.1502 26.5253 27.5132 27.3168 28.3999L29.7246 31.0972Z" fill="white"/>
<path id="Vector_50" d="M31.3266 32.2936C31.2785 32.2936 31.2281 32.2936 31.1801 32.2887C30.4787 32.2501 29.8351 31.9391 29.3667 31.4157L26.9601 28.7196C25.9922 27.6368 26.0835 25.9656 27.1643 24.9937C28.2427 24.0219 29.9095 24.1135 30.875 25.1987L33.2816 27.8948C34.2496 28.9776 34.1583 30.6489 33.0775 31.6207C32.5923 32.0572 31.975 32.2936 31.3266 32.2936ZM28.9152 25.2855C28.5189 25.2855 28.1202 25.4254 27.8031 25.7124C27.1186 26.3273 27.061 27.3884 27.6734 28.0757L30.08 30.7719C30.3779 31.1047 30.7862 31.3024 31.2305 31.3265C31.6772 31.3506 32.1023 31.1987 32.4338 30.9021C33.1183 30.2871 33.1759 29.226 32.5635 28.5387L30.1569 25.8426C29.8278 25.4736 29.3715 25.2855 28.9152 25.2855Z" fill="#0D1517"/>
</g>
<g id="Group_31">
<path id="Vector_51" d="M20.2459 28.088C19.1541 28.5529 18.6444 29.8184 19.1074 30.9146C19.5704 32.0108 20.8307 32.5226 21.9225 32.0577L25.2437 30.6436C26.3355 30.1787 26.8452 28.9132 26.3822 27.817C25.9192 26.7208 24.6589 26.209 23.5671 26.6739L20.2459 28.088Z" fill="white"/>
<path id="Vector_52" d="M21.0829 32.711C20.7491 32.711 20.4152 32.6459 20.0982 32.5181C19.4473 32.2528 18.9381 31.7512 18.6643 31.1025C18.0975 29.7641 18.7243 28.211 20.0573 27.6419L23.3766 26.2287C24.0227 25.9538 24.736 25.9465 25.3893 26.2118C26.0402 26.4771 26.5494 26.9787 26.8232 27.6274C27.097 28.2761 27.1042 28.9948 26.84 29.6483C26.5758 30.3018 26.0762 30.8131 25.4302 31.088L22.1109 32.5012C21.7818 32.6411 21.4336 32.7134 21.0853 32.7134L21.0829 32.711ZM24.4022 26.9835C24.1812 26.9835 23.9603 27.0293 23.7513 27.1162L20.432 28.5293C19.5866 28.8911 19.1879 29.875 19.5482 30.7239C19.7211 31.1362 20.0453 31.4546 20.4584 31.6234C20.8716 31.7898 21.3255 31.7874 21.7338 31.6137L25.0531 30.2006C25.4638 30.0269 25.7808 29.7014 25.9489 29.2866C26.1147 28.8718 26.1123 28.416 25.9393 28.006C25.7664 27.5936 25.4422 27.2753 25.0291 27.1065C24.8273 27.0245 24.6159 26.9835 24.4046 26.9835H24.4022Z" fill="#0D1517"/>
</g>
<g id="Group_32">
<path id="Vector_53" d="M30.3367 22.7959C31.2134 23.5978 32.5714 23.5342 33.37 22.6539C34.1686 21.7736 34.1052 20.4101 33.2285 19.6082L30.5616 17.1691C29.6849 16.3672 28.3268 16.4308 27.5283 17.3111C26.7297 18.1914 26.7931 19.5549 27.6697 20.3568L30.3367 22.7959Z" fill="white"/>
<path id="Vector_54" d="M26.4894 18.7621C26.4894 18.1278 26.7151 17.4912 27.1739 16.9871C28.149 15.9116 29.8159 15.8344 30.8871 16.8135L33.5531 19.2516C34.6243 20.2307 34.7011 21.9043 33.726 22.9799C33.2528 23.5008 32.6067 23.8071 31.9054 23.8384C31.2041 23.8722 30.5316 23.6286 30.0128 23.1535L27.3468 20.7154C26.7776 20.1945 26.4894 19.4807 26.4894 18.7645V18.7621ZM27.8824 17.6358C27.2628 18.3183 27.3132 19.3794 27.9929 20.0016L30.6589 22.4397C30.9879 22.7412 31.4155 22.8955 31.8598 22.8738C32.3041 22.8521 32.7148 22.6592 33.0151 22.3288C33.6347 21.6463 33.5843 20.5852 32.9046 19.963L30.2386 17.5249C29.5589 16.9027 28.5021 16.9534 27.8824 17.6358Z" fill="#0D1517"/>
</g>
<g id="Group_33">
<path id="Vector_55" d="M36.9494 21.2846C37.1596 20.1127 36.3839 18.9917 35.2168 18.7806C34.0498 18.5695 32.9332 19.3484 32.723 20.5202L32.0836 24.0851C31.8734 25.2569 32.6491 26.378 33.8162 26.589C34.9833 26.8001 36.0998 26.0212 36.31 24.8494L36.9494 21.2846Z" fill="white"/>
<path id="Vector_56" d="M34.2063 27.1039C34.0502 27.1039 33.8917 27.0894 33.7356 27.0605C33.0439 26.9351 32.4434 26.5492 32.0423 25.968C31.6412 25.3892 31.4899 24.6875 31.6148 23.9954L32.2537 20.4311C32.3786 19.7365 32.7629 19.1336 33.3417 18.7309C33.9181 18.3282 34.6146 18.1762 35.3064 18.3016C36.733 18.5597 37.6841 19.9343 37.4271 21.3667L36.7883 24.931C36.6634 25.6256 36.2791 26.2285 35.7003 26.6312C35.2559 26.9423 34.7371 27.1039 34.2063 27.1039ZM34.8356 19.2277C34.4994 19.2277 34.1703 19.3314 33.8869 19.5267C33.5218 19.7823 33.2768 20.1658 33.1976 20.6047L32.5587 24.169C32.4795 24.6103 32.5755 25.054 32.8301 25.4206C33.0847 25.7872 33.4666 26.0331 33.9037 26.1127C34.3408 26.1923 34.7852 26.0958 35.1502 25.8402C35.5153 25.5846 35.7603 25.2011 35.8396 24.7622L36.4784 21.1979C36.5577 20.759 36.4616 20.3129 36.207 19.9463C35.9524 19.5798 35.5706 19.3338 35.1334 19.2542C35.0326 19.2349 34.9341 19.2277 34.8356 19.2277Z" fill="#0D1517"/>
</g>
<g id="Group_34">
<path id="Vector_57" d="M16.0585 23.9609C16.9416 23.1662 17.0158 21.8032 16.2243 20.9165C15.4328 20.0298 14.0753 19.9553 13.1923 20.75L10.5059 23.1676C9.62283 23.9623 9.5486 25.3254 10.3401 26.212C11.1316 27.0987 12.4891 27.1732 13.3722 26.3785L16.0585 23.9609Z" fill="white"/>
<path id="Vector_58" d="M11.9417 27.4103C11.2212 27.4103 10.5007 27.1137 9.98428 26.5349C9.01635 25.4521 9.10762 23.7809 10.1884 22.809L12.8736 20.3926C13.952 19.4208 15.6189 19.5124 16.5844 20.5976C17.5523 21.6804 17.4611 23.3516 16.3803 24.3235L13.695 26.7399C13.1931 27.1909 12.5662 27.4127 11.9417 27.4127V27.4103ZM14.6245 20.6844C14.2282 20.6844 13.8295 20.8243 13.5125 21.1113L10.8273 23.5277C10.1428 24.1451 10.0852 25.2037 10.6976 25.891C11.3101 26.5783 12.3669 26.6362 13.0514 26.0213L15.7366 23.6049C16.4211 22.9899 16.4787 21.9288 15.8663 21.2415C15.5372 20.8725 15.0809 20.6844 14.6245 20.6844Z" fill="#0D1517"/>
</g>
<g id="Group_35">
<path id="Vector_59" d="M6.94496 18.9971C6.30483 17.9947 4.97666 17.7032 3.9784 18.346C2.98014 18.9887 2.68983 20.3223 3.32996 21.3246L5.27728 24.3738C5.91741 25.3761 7.24559 25.6676 8.24384 25.0248C9.2421 24.3821 9.53242 23.0485 8.89229 22.0462L6.94496 18.9971Z" fill="white"/>
<path id="Vector_60" d="M7.09012 25.8497C6.90278 25.8497 6.71304 25.8305 6.52329 25.787C5.83878 25.6375 5.25034 25.2276 4.87326 24.6343L2.92781 21.5861C2.14482 20.361 2.50269 18.726 3.7204 17.9398C4.31124 17.5587 5.01257 17.4333 5.69948 17.5829C6.38399 17.7324 6.97243 18.1424 7.34951 18.7356L9.29496 21.7838C10.0779 23.0089 9.72008 24.644 8.50237 25.4301C8.07485 25.7051 7.58729 25.8473 7.09012 25.8473V25.8497ZM5.13506 18.4872C4.82042 18.4872 4.51059 18.5788 4.23919 18.7525C3.86451 18.9936 3.60511 19.3674 3.50904 19.8039C3.41297 20.2404 3.49463 20.689 3.73481 21.0652L5.68026 24.1134C5.92044 24.4896 6.29272 24.7501 6.72745 24.8441C7.16217 24.9406 7.60891 24.8586 7.98359 24.6174C8.75696 24.1182 8.98273 23.0813 8.48796 22.3047L6.54251 19.2565C6.30233 18.8803 5.93005 18.6198 5.49533 18.5258C5.37524 18.4993 5.25515 18.4872 5.13506 18.4872Z" fill="#0D1517"/>
</g>
<g id="Group_36">
<path id="Vector_61" d="M28.5844 26.1853C29.77 26.2105 30.7515 25.2658 30.7765 24.0754C30.8015 22.885 29.8607 21.8995 28.6751 21.8744L25.0684 21.7979C23.8828 21.7728 22.9014 22.7174 22.8764 23.9078C22.8513 25.0983 23.7921 26.0837 24.9777 26.1088L28.5844 26.1853Z" fill="white"/>
<path id="Vector_62" d="M29.0473 26.6383C28.8935 26.6624 28.735 26.6745 28.5741 26.6697L24.969 26.5925C24.2677 26.578 23.612 26.2886 23.1268 25.7798C22.6417 25.2709 22.3823 24.6029 22.3967 23.8988C22.4279 22.4446 23.6288 21.287 25.0795 21.316L28.6846 21.3931C29.3859 21.4076 30.0416 21.697 30.5268 22.2058C31.0119 22.7147 31.2713 23.3827 31.2569 24.0869C31.2425 24.791 30.9543 25.4494 30.4475 25.9365C30.056 26.3127 29.5708 26.5539 29.0449 26.6383H29.0473ZM24.7625 22.3023C24.4286 22.3554 24.1212 22.5073 23.8738 22.7484C23.552 23.0571 23.3694 23.4743 23.3598 23.9229C23.3502 24.369 23.5159 24.7935 23.8234 25.1166C24.1308 25.4398 24.5463 25.623 24.993 25.6327L28.5981 25.7099C29.0425 25.7195 29.4652 25.5555 29.787 25.2444C30.1088 24.9357 30.2914 24.5185 30.301 24.0724C30.3106 23.6263 30.1449 23.2018 29.8374 22.8787C29.53 22.5555 29.1145 22.3722 28.6702 22.3626L25.0651 22.2854C24.9642 22.2854 24.8633 22.2902 24.7649 22.3047L24.7625 22.3023Z" fill="#0D1517"/>
</g>
<g id="Group_37">
<path id="Vector_63" d="M19.872 27.5731C20.4416 26.5288 20.0603 25.2185 19.0202 24.6465C17.9801 24.0745 16.6752 24.4574 16.1055 25.5017L14.3725 28.6786C13.8029 29.7229 14.1842 31.0332 15.2243 31.6052C16.2644 32.1772 17.5693 31.7943 18.139 30.75L19.872 27.5731Z" fill="white"/>
<path id="Vector_64" d="M16.2553 32.3565C15.8206 32.3565 15.3883 32.2456 14.9968 32.0309C14.3819 31.6933 13.9328 31.1338 13.7358 30.4562C13.5389 29.7809 13.6158 29.0671 13.9544 28.4473L15.6861 25.2713C16.0223 24.6539 16.5796 24.2029 17.2545 24.0052C17.9294 23.8074 18.6379 23.8846 19.2552 24.2247C19.87 24.5623 20.3192 25.1218 20.5161 25.7994C20.7131 26.4747 20.6362 27.1885 20.2975 27.8083L18.5658 30.9843C18.2296 31.6017 17.6724 32.0526 16.9975 32.2504C16.7525 32.3227 16.5051 32.3565 16.2577 32.3565H16.2553ZM15.4579 31.1845C15.8494 31.3991 16.2986 31.4497 16.7261 31.3219C17.1536 31.1965 17.5067 30.912 17.7204 30.5189L19.4521 27.3428C19.6659 26.9497 19.7139 26.4988 19.589 26.0695C19.4641 25.6402 19.1807 25.2857 18.7892 25.0711C18.3977 24.8565 17.9486 24.8083 17.5211 24.9337C17.0935 25.0591 16.7405 25.3436 16.5267 25.7367L14.795 28.9128C14.5813 29.3058 14.5332 29.7568 14.6581 30.1861C14.783 30.6153 15.0664 30.9698 15.4579 31.1845Z" fill="#0D1517"/>
</g>
<g id="Group_38">
<path id="Vector_65" d="M6.52716 30.4037C7.69843 30.2174 8.49754 29.1131 8.31203 27.937C8.12652 26.761 7.02663 25.9586 5.85537 26.1449L2.29229 26.7115C1.12102 26.8978 0.321906 28.0021 0.507417 29.1782C0.692928 30.3542 1.79281 31.1566 2.96408 30.9703L6.52716 30.4037Z" fill="white"/>
<path id="Vector_66" d="M2.62755 31.4806C1.357 31.4806 0.237767 30.5522 0.0336142 29.2547C-0.0768683 28.5578 0.0912573 27.8608 0.504366 27.2917C0.917474 26.7226 1.52513 26.3464 2.21925 26.2354L5.78111 25.6687C7.21258 25.442 8.55998 26.426 8.78815 27.8633C8.89863 28.5602 8.73051 29.2571 8.3174 29.8263C7.90429 30.3954 7.29664 30.7716 6.60252 30.8825L3.04066 31.4493C2.90136 31.471 2.76445 31.483 2.62755 31.483V31.4806ZM0.982323 29.1028C1.12643 30.0144 1.98147 30.639 2.88935 30.4943L6.45121 29.9276C6.89074 29.8576 7.27742 29.6189 7.53922 29.2571C7.80102 28.8954 7.90669 28.4541 7.83704 28.0104C7.76739 27.569 7.52961 27.1808 7.16934 26.9179C6.80907 26.6551 6.36714 26.5489 5.92762 26.6189L2.36576 27.1856C1.92623 27.2555 1.53954 27.4943 1.27774 27.856C1.01595 28.2178 0.910269 28.6591 0.979921 29.1028H0.982323Z" fill="#0D1517"/>
</g>
<g id="Group_39">
<path id="Vector_67" d="M13.2241 31.5053C14.1071 30.7106 14.1814 29.3476 13.3899 28.4609C12.5984 27.5743 11.2409 27.4997 10.3578 28.2944L7.67143 30.712C6.78836 31.5068 6.71412 32.8698 7.50562 33.7565C8.29712 34.6431 9.65463 34.7177 10.5377 33.9229L13.2241 31.5053Z" fill="white"/>
<path id="Vector_68" d="M9.1052 34.9513C8.38466 34.9513 7.66412 34.6547 7.14774 34.0759C6.67939 33.5502 6.44161 32.875 6.48004 32.1708C6.51847 31.4666 6.8283 30.8203 7.34949 30.3501L10.0347 27.9337C11.1131 26.9618 12.7799 27.0534 13.7455 28.1386C14.711 29.2239 14.6221 30.8927 13.5413 31.8645L10.8561 34.2809C10.3565 34.7319 9.72726 34.9538 9.1028 34.9538L9.1052 34.9513ZM11.7904 28.2255C11.3941 28.2255 10.9954 28.3653 10.6784 28.6523L7.99317 31.0687C7.66172 31.3677 7.46477 31.7777 7.44076 32.2239C7.41674 32.67 7.56565 33.0993 7.86347 33.4321C8.47593 34.1194 9.53272 34.1772 10.2172 33.5623L12.9024 31.1459C13.5869 30.5309 13.6446 29.4698 13.0321 28.7825C12.7031 28.4136 12.2467 28.2255 11.7904 28.2255Z" fill="#0D1517"/>
</g>
</g>
</g>
</g>
</g>
</g>
<path id="Vector_69" d="M21.0469 16.0394C20.665 15.9309 20.4417 15.5306 20.5497 15.1471C20.6578 14.7637 21.0565 14.5394 21.4384 14.648L49.2079 22.541C55.9354 24.4534 59.8575 31.5049 57.9553 38.2573C56.3797 43.8449 51.3816 47.5274 45.807 47.5274C45.0336 47.5274 44.2458 47.4574 43.458 47.3103C43.0834 47.2428 42.6943 47.1512 42.3028 47.0402L10.7937 38.0836C7.53442 37.1576 4.83 35.0113 3.17756 32.0451C1.52513 29.0764 1.12403 25.6399 2.04632 22.3674C2.51227 20.7131 3.28805 19.201 4.34964 17.8722C4.79397 17.3176 5.28874 16.7943 5.81954 16.3216C6.0381 16.1262 6.26867 15.9357 6.50645 15.75C6.82108 15.5065 7.27502 15.5668 7.5176 15.8827C7.76018 16.1986 7.70014 16.6544 7.38551 16.898C7.17415 17.0595 6.96999 17.2307 6.77785 17.402C6.3071 17.8216 5.86757 18.2846 5.47608 18.7766C4.53458 19.9534 3.84766 21.2943 3.43455 22.7605C2.61794 25.6616 2.97341 28.7074 4.4361 31.3385C5.9012 33.9695 8.29819 35.8698 11.1851 36.6922L42.6943 45.6488C43.0425 45.7476 43.386 45.8272 43.7174 45.8875C49.4553 46.9558 54.977 43.5049 56.5694 37.8642C58.2579 31.8787 54.7801 25.6279 48.8164 23.9325" fill="white"/>
</g>
<g id="Group_40">
<g id="Group_41">
<g id="Group_42">
<path id="Vector_70" d="M13.5917 14.2238C13.5917 13.0331 12.6304 12.0679 11.4445 12.0679C10.2586 12.0679 9.2973 13.0331 9.2973 14.2238V17.846C9.2973 19.0367 10.2586 20.002 11.4445 20.002C12.6304 20.002 13.5917 19.0367 13.5917 17.846V14.2238Z" fill="#3CD955"/>
<path id="Vector_71" d="M11.4445 20.4842C9.99624 20.4842 8.81696 19.3001 8.81696 17.8459V14.2237C8.81696 12.7695 9.99624 11.5854 11.4445 11.5854C12.8928 11.5854 14.0721 12.7695 14.0721 14.2237V17.8459C14.0721 19.3001 12.8928 20.4842 11.4445 20.4842ZM11.4445 12.5501C10.5246 12.5501 9.77767 13.3001 9.77767 14.2237V17.8459C9.77767 18.7695 10.5246 19.5195 11.4445 19.5195C12.3644 19.5195 13.1114 18.7695 13.1114 17.8459V14.2237C13.1114 13.3001 12.3644 12.5501 11.4445 12.5501Z" fill="#0D1517"/>
</g>
<g id="Group_43">
<path id="Vector_72" d="M23.3574 2.63837C23.3574 1.44767 22.3961 0.482422 21.2102 0.482422C20.0243 0.482422 19.063 1.44767 19.063 2.63837V8.43339C19.063 9.62408 20.0243 10.5893 21.2102 10.5893C22.3961 10.5893 23.3574 9.62408 23.3574 8.43339V2.63837Z" fill="#3CD955"/>
<path id="Vector_73" d="M21.2102 11.0715C19.7619 11.0715 18.5826 9.88746 18.5826 8.43328V2.63826C18.5826 1.18408 19.7619 0 21.2102 0C22.6585 0 23.8378 1.18408 23.8378 2.63826V8.43087C23.8378 9.88505 22.6585 11.0691 21.2102 11.0691V11.0715ZM21.2102 0.96463C20.2903 0.96463 19.5434 1.71463 19.5434 2.63826V8.43087C19.5434 9.3545 20.2903 10.1045 21.2102 10.1045C22.1301 10.1045 22.877 9.3545 22.877 8.43087V2.63826C22.877 1.71463 22.1301 0.96463 21.2102 0.96463Z" fill="#0D1517"/>
</g>
<g id="Group_44">
<path id="Vector_74" d="M18.4746 8.7663C18.4746 7.5756 17.5132 6.61035 16.3274 6.61035C15.1415 6.61035 14.1802 7.5756 14.1802 8.7663V14.8025C14.1802 15.9932 15.1415 16.9584 16.3274 16.9584C17.5132 16.9584 18.4746 15.9932 18.4746 14.8025V8.7663Z" fill="#3CD955"/>
<path id="Vector_75" d="M16.3274 17.4407C14.8791 17.4407 13.6998 16.2566 13.6998 14.8024V8.76864C13.6998 7.31445 14.8791 6.13037 16.3274 6.13037C17.7757 6.13037 18.955 7.31445 18.955 8.76864V14.8024C18.955 16.2566 17.7757 17.4407 16.3274 17.4407ZM16.3274 7.09259C15.4075 7.09259 14.6605 7.84259 14.6605 8.76622V14.8C14.6605 15.7236 15.4075 16.4736 16.3274 16.4736C17.2473 16.4736 17.9942 15.7236 17.9942 14.8V8.76622C17.9942 7.84259 17.2473 7.09259 16.3274 7.09259Z" fill="#0D1517"/>
</g>
</g>
<g id="Group_45">
<path id="Vector_76" d="M9.14119 9.58156C9.14119 9.58156 8.66564 8.60729 7.51758 7.68848L9.14119 9.58156Z" fill="#0D1517"/>
<path id="Vector_77" d="M9.1412 10.3048C8.877 10.3048 8.62001 10.1577 8.49511 9.90208C8.48551 9.88037 8.05318 9.04115 7.06605 8.25256C6.75622 8.00417 6.70338 7.54838 6.95316 7.23488C7.20295 6.92378 7.65449 6.87073 7.96672 7.12153C9.22526 8.12957 9.76566 9.21478 9.78728 9.2606C9.96261 9.61992 9.8161 10.054 9.45823 10.2301C9.35496 10.2807 9.24688 10.3048 9.1412 10.3048Z" fill="white"/>
</g>
<g id="Group_46">
<path id="Vector_78" d="M7.73615 12.3618C7.73615 12.3618 7.10448 11.9302 6.23022 11.9687L7.73615 12.3618Z" fill="#0D1517"/>
<path id="Vector_79" d="M7.73376 13.0853C7.59686 13.0853 7.45756 13.0467 7.33267 12.9623C7.31345 12.9503 6.85711 12.6633 6.26147 12.6922C5.85796 12.7115 5.52652 12.4004 5.5097 12.0025C5.49049 11.6022 5.79792 11.2646 6.19662 11.2477C7.27983 11.197 8.05561 11.7059 8.14207 11.7662C8.47112 11.9904 8.55518 12.4414 8.33181 12.7718C8.19251 12.9768 7.96674 13.0877 7.73617 13.0877L7.73376 13.0853Z" fill="white"/>
</g>
<g id="Group_47">
<path id="Vector_80" d="M22.8074 12.5834C22.8074 12.5834 23.5256 12.3446 24.5463 12.47L22.8074 12.5834Z" fill="#0D1517"/>
<path id="Vector_81" d="M22.8123 13.307C22.5072 13.307 22.2238 13.1116 22.1253 12.8054C22.0028 12.4267 22.207 12.0216 22.5817 11.8962C22.6705 11.8673 23.4848 11.6092 24.6352 11.7515C25.0291 11.7997 25.3125 12.1615 25.2645 12.557C25.2164 12.9549 24.8586 13.237 24.4623 13.1888C23.6313 13.0875 23.0356 13.2708 23.0308 13.2732C22.9588 13.2949 22.8843 13.307 22.8123 13.307Z" fill="white"/>
</g>
</g>
</g>
<g id="Group_48">
<path id="Vector_82" d="M27.5486 42.1544L43.6646 46.7339C46.7365 47.6069 51.1462 46.5145 53.4447 44.291C58.3203 39.5788 58.6806 33.4823 56.1803 28.992C54.6888 26.3103 52.1765 24.2002 48.999 23.2983L34.1271 19.0708C32.9526 18.738 31.6989 19.2106 31.0384 20.2404C29.1457 23.197 25.68 29.8867 25.5286 39.4413C25.5094 40.6978 26.3453 41.8095 27.551 42.1519L27.5486 42.1544Z" fill="white"/>
<path id="Vector_83" d="M45.9751 47.7542C45.0937 47.7542 44.2434 47.6505 43.4676 47.4286L27.3516 42.849C25.8289 42.4149 24.7817 41.009 24.8057 39.4294C24.9594 29.7927 28.3964 23.0259 30.4307 19.8474C31.2665 18.5403 32.8325 17.9495 34.3216 18.3715L49.1935 22.599C52.4528 23.525 55.1572 25.6689 56.8072 28.6376C59.7542 33.931 58.6278 40.2807 53.9419 44.8096C52.0517 46.6352 48.8549 47.7517 45.9727 47.7517L45.9751 47.7542ZM27.7455 41.4575L43.8615 46.0371C46.6836 46.8402 50.846 45.8008 52.9451 43.7702C57.1459 39.7091 58.169 34.0468 55.5511 29.3442C54.0884 26.7132 51.6914 24.8128 48.802 23.9929L33.9301 19.7654C33.0535 19.517 32.1336 19.8643 31.6436 20.6312C29.691 23.677 26.3957 30.1762 26.2468 39.4535C26.2324 40.3796 26.8472 41.2019 27.7431 41.4575H27.7455Z" fill="white"/>
</g>
<g id="Group_49">
<path id="Vector_84" d="M45.4612 44.0883C44.767 44.0883 44.0969 44.0063 43.4845 43.8326C43.1026 43.7241 42.8792 43.3238 42.9873 42.9403C43.0954 42.5569 43.4941 42.3326 43.876 42.4412C46.0088 43.0465 49.1551 42.2627 50.7427 40.7265C51.0285 40.4492 51.4849 40.4588 51.7611 40.7458C52.0373 41.0328 52.0277 41.491 51.7419 41.7683C50.2527 43.208 47.7309 44.0883 45.4588 44.0883H45.4612Z" fill="#0D1519"/>
</g>
</g>
</svg>
