<svg width="47" height="45" viewBox="0 0 47 45" fill="none" xmlns="http://www.w3.org/2000/svg">
<g id="Layer_1" clip-path="url(#clip0_1577_60)">
<path id="Vector" d="M44.5728 22.5C44.2231 34.92 34.5968 45 22.2898 45C15.5226 45 9.4616 41.9539 5.37524 37.1423L12.2178 33.5216C14.8644 35.9862 18.4022 37.4954 22.2898 37.4954C30.2156 37.4954 36.688 31.2162 37.1062 23.317L44.4631 20.3054C44.4631 20.3054 44.607 21.2816 44.5728 22.5Z" fill="white"/>
<path id="Vector_2" d="M46.9999 14.7738V17.0238L44.1614 18.1869L37.0652 21.0946L10.7232 31.8946L8.29608 32.8915C8.22066 32.9123 8.13153 32.9331 8.05611 32.9331H6.58201C6.01979 32.8708 5.34787 32.7323 4.65538 32.4485C2.36538 31.5138 -0.150888 29.0146 0.00680704 22.5C0.0753701 19.8138 0.473036 17.2315 1.33007 14.8431C1.56319 14.1923 1.83058 13.5485 2.11855 12.9254C5.68383 5.28923 13.3766 0 22.2898 0C31.203 0 39.4306 5.66308 42.8107 13.7285L35.5156 15.6877C33.0611 10.8346 28.0628 7.51154 22.2898 7.51154C16.5168 7.51154 11.306 10.98 8.90629 15.9992C8.57719 16.6915 8.30294 17.4046 8.08354 18.1385C8.06297 18.2077 8.0424 18.2769 8.02869 18.3462C8.13153 18.5677 8.18638 18.81 8.18638 19.0662C8.18638 22.1608 11.0866 24.4108 14.0417 23.6146L36.3247 17.6192L43.5307 15.6946L46.9999 14.7738Z" fill="white"/>
<path id="Vector_3" d="M8.05615 32.9331C8.13157 32.9331 8.2207 32.9124 8.29612 32.8916L8.20699 32.9331H8.05615Z" fill="white"/>
</g>
<defs>
<clipPath id="clip0_1577_60">
<rect width="47" height="45" fill="white"/>
</clipPath>
</defs>
</svg>
